<svg xmlns="http://www.w3.org/2000/svg" width="455.527" height="111.361" viewBox="0 0 455.527 111.361"><title>Asset 1</title><g id="Layer_2" data-name="Layer 2"><g id="Layer_1-2" data-name="Layer 1"><path d="M103.38,52.314v2.665c0,29.874-16.051,56.382-50.512,56.382C20.47,111.361,0,85.274,0,56.1,0,25.946,21.059,0,54.194,0c18.85,0,35.343,9.116,43.885,25.245L78.934,35.063c-4.418-9.537-13.842-16.831-25.329-16.831-20.912,0-31.221,20.337-31.221,37.869S32.84,93.128,53.752,93.128c13.548,0,24.888-11.22,25.33-23.983H55.519V52.314Z" fill="#b00044"/><rect x="110.555" y="2.805" width="21.648" height="105.751" fill="#b00044"/><polygon points="183.318 108.556 161.67 108.556 161.67 20.757 139.286 20.757 139.286 2.805 205.702 2.805 205.702 20.757 183.318 20.757 183.318 108.556" fill="#b00044"/><path d="M445.189,108.409h5.371V92.238h4.967V88.253h-15.3v3.985h4.966Zm-20.063,0H430.5V100.3h7.768V96.483H430.5V92.065h8.114V88.253H425.126Zm-9.209,0h5.371V88.253h-5.371Zm-19.48,0h5.371v-7.97h1.126a3.9,3.9,0,0,1,1.285.188,2.216,2.216,0,0,1,.953.678,5.294,5.294,0,0,1,.78,1.329,22.417,22.417,0,0,1,.765,2.137l1.155,3.638h5.6l-1.963-5.487q-.377-.922-.621-1.66a9.256,9.256,0,0,0-.535-1.3,3.488,3.488,0,0,0-.678-.939,2.341,2.341,0,0,0-1.025-.549v-.057a4.821,4.821,0,0,0,2.916-1.762,5.466,5.466,0,0,0,.953-3.321,4.752,4.752,0,0,0-.5-2.252,4.522,4.522,0,0,0-1.4-1.588,6.214,6.214,0,0,0-2.079-.939,10.1,10.1,0,0,0-2.512-.3h-9.587Zm5.371-16.344h1.415a12.4,12.4,0,0,1,1.487.086,4.52,4.52,0,0,1,1.242.318,2.088,2.088,0,0,1,.866.679,1.863,1.863,0,0,1,.332,1.14,2.063,2.063,0,0,1-.375,1.329,2.328,2.328,0,0,1-.939.693,3.971,3.971,0,0,1-1.27.274q-.708.043-1.343.043h-1.415Zm-26.171,16.344h5.371V99.775h6.353v8.634h5.371V88.253h-5.371v7.71h-6.353v-7.71h-5.371Zm-2.922-4.678a17.074,17.074,0,0,1-2.4.736,11.53,11.53,0,0,1-2.627.3,8.188,8.188,0,0,1-2.715-.434,5.9,5.9,0,0,1-2.122-1.256,5.813,5.813,0,0,1-1.386-2.007,6.7,6.7,0,0,1-.506-2.656,7.4,7.4,0,0,1,.448-2.614,6.015,6.015,0,0,1,1.27-2.064,5.855,5.855,0,0,1,1.978-1.358,6.591,6.591,0,0,1,2.6-.491,10.224,10.224,0,0,1,2.672.347,11.5,11.5,0,0,1,2.584,1.068l.433-4.36q-1.473-.434-2.945-.736a15.013,15.013,0,0,0-3.032-.3,15.671,15.671,0,0,0-4.606.65A10.185,10.185,0,0,0,358.7,90.52a8.975,8.975,0,0,0-2.411,3.292,11.408,11.408,0,0,0-.866,4.606,10.17,10.17,0,0,0,1.054,4.836,9.261,9.261,0,0,0,2.714,3.191,11.076,11.076,0,0,0,3.725,1.762,15.9,15.9,0,0,0,4.086.549,19.1,19.1,0,0,0,3.437-.26q1.386-.261,2.541-.549Zm-34.268,4.158a17.31,17.31,0,0,0,2.974.65,22.985,22.985,0,0,0,3.033.217,17.6,17.6,0,0,0,3.277-.3,8.49,8.49,0,0,0,2.844-1.054,5.688,5.688,0,0,0,1.993-2.036,6.365,6.365,0,0,0,.751-3.248,5.317,5.317,0,0,0-.708-2.917,5.712,5.712,0,0,0-1.761-1.761,8.629,8.629,0,0,0-2.3-1.011q-1.242-.346-2.3-.664a7.541,7.541,0,0,1-1.761-.751,1.375,1.375,0,0,1-.708-1.242,1.4,1.4,0,0,1,.376-1.039,2.365,2.365,0,0,1,.924-.563,4.583,4.583,0,0,1,1.169-.231q.621-.043,1.141-.044a12.321,12.321,0,0,1,2.3.217,9.026,9.026,0,0,1,2.18.707l.346-4.158a13.418,13.418,0,0,0-2.367-.548,19.185,19.185,0,0,0-2.83-.2,16.977,16.977,0,0,0-3.09.289,9.3,9.3,0,0,0-2.816.982,5.892,5.892,0,0,0-2.064,1.891,5.274,5.274,0,0,0-.809,3.018,5.387,5.387,0,0,0,.707,2.946,5.563,5.563,0,0,0,1.762,1.747,9.264,9.264,0,0,0,2.3,1.01q1.24.361,2.3.722a7.177,7.177,0,0,1,1.762.852,1.647,1.647,0,0,1,.707,1.444,1.691,1.691,0,0,1-.274,1,1.841,1.841,0,0,1-.736.607,3.459,3.459,0,0,1-1.069.288,10.3,10.3,0,0,1-1.241.073,11.991,11.991,0,0,1-3.09-.376,10.635,10.635,0,0,1-2.455-.953Zm-12.29.52h5.371V92.238H336.5V88.253H321.19v3.985h4.967Zm-12.6,0h5.371V88.253h-5.371Zm-17.923,0H310.16V104.6h-9.154v-4.562h8.345V96.223h-8.345V92.065h8.836V88.253H295.635Zm-2.969-20.156H277.217v3.985h9.327l-9.587,11.9v4.274h15.767v-3.985H282.79l9.876-11.9Zm-35.55,20.156h5.371V99.775h6.353v8.634h5.371V88.253H268.84v7.71h-6.353v-7.71h-5.371Zm-2.922-4.678a17.074,17.074,0,0,1-2.4.736,11.53,11.53,0,0,1-2.627.3,8.188,8.188,0,0,1-2.715-.434,5.9,5.9,0,0,1-2.122-1.256,5.813,5.813,0,0,1-1.386-2.007,6.7,6.7,0,0,1-.506-2.656,7.4,7.4,0,0,1,.448-2.614,6.015,6.015,0,0,1,1.27-2.064,5.849,5.849,0,0,1,1.979-1.358,6.583,6.583,0,0,1,2.6-.491,10.219,10.219,0,0,1,2.672.347,11.5,11.5,0,0,1,2.584,1.068l.433-4.36q-1.473-.434-2.945-.736a15.013,15.013,0,0,0-3.032-.3,15.671,15.671,0,0,0-4.606.65,10.185,10.185,0,0,0-3.668,1.964,8.975,8.975,0,0,0-2.411,3.292,11.408,11.408,0,0,0-.866,4.606,10.17,10.17,0,0,0,1.054,4.836,9.261,9.261,0,0,0,2.714,3.191,11.076,11.076,0,0,0,3.725,1.762,15.9,15.9,0,0,0,4.087.549,19.1,19.1,0,0,0,3.436-.26q1.386-.261,2.541-.549Zm-39.578,4.678h5.457l1.588-4.3h7.566l1.5,4.3h5.891l-7.768-20.156h-6.584Zm13.341-8.114H222.9l2.6-7.884h.058Zm-26.7,8.114h5.371V100.3H214.4V96.483h-7.768V92.065h8.115V88.253H201.26Z" fill="#fff"/><path d="M300.136,75.609h7.826V71.8h-7.826ZM281.9,81.471h5.371V73.5H288.4a3.893,3.893,0,0,1,1.285.188,2.216,2.216,0,0,1,.953.678,5.294,5.294,0,0,1,.78,1.329,22.417,22.417,0,0,1,.765,2.137l1.155,3.638h5.6l-1.963-5.487q-.377-.924-.621-1.66a9.449,9.449,0,0,0-.534-1.3,3.522,3.522,0,0,0-.679-.938,2.341,2.341,0,0,0-1.025-.549V71.48a4.821,4.821,0,0,0,2.916-1.762,5.466,5.466,0,0,0,.953-3.321,4.74,4.74,0,0,0-.5-2.252,4.529,4.529,0,0,0-1.4-1.588,6.21,6.21,0,0,0-2.08-.939,10.1,10.1,0,0,0-2.512-.3H281.9Zm5.371-16.344h1.415a12.4,12.4,0,0,1,1.487.086,4.52,4.52,0,0,1,1.242.318,2.082,2.082,0,0,1,.866.679,1.863,1.863,0,0,1,.332,1.14,2.063,2.063,0,0,1-.375,1.329,2.328,2.328,0,0,1-.939.693,3.971,3.971,0,0,1-1.27.274q-.708.043-1.343.043h-1.415Zm-27.794,10.6a8.763,8.763,0,0,0,1.935,3.292,8.442,8.442,0,0,0,3.162,2.08,13.483,13.483,0,0,0,8.706,0,8.437,8.437,0,0,0,3.177-2.08,8.774,8.774,0,0,0,1.934-3.292,14.851,14.851,0,0,0,0-8.691,8.737,8.737,0,0,0-1.92-3.278,8.412,8.412,0,0,0-3.162-2.065,13.616,13.616,0,0,0-8.75,0,8.412,8.412,0,0,0-3.162,2.065,8.737,8.737,0,0,0-1.92,3.278,14.851,14.851,0,0,0,0,8.691m5.155-6.8a6.5,6.5,0,0,1,.808-2.05,4.2,4.2,0,0,1,1.415-1.4,4.416,4.416,0,0,1,4.158,0,4.194,4.194,0,0,1,1.415,1.4,6.5,6.5,0,0,1,.809,2.05,11.377,11.377,0,0,1,.26,2.469,11.1,11.1,0,0,1-.26,2.411,6.691,6.691,0,0,1-.809,2.065,4.27,4.27,0,0,1-1.415,1.429,4.307,4.307,0,0,1-4.158,0,4.279,4.279,0,0,1-1.415-1.429,6.69,6.69,0,0,1-.808-2.065,11.036,11.036,0,0,1-.26-2.411,11.315,11.315,0,0,1,.26-2.469M240.477,81.471h8.49a16.931,16.931,0,0,0,2.758-.231,7.44,7.44,0,0,0,2.527-.881,5.021,5.021,0,0,0,2.57-4.721q0-3.609-4.072-4.447v-.058a5.7,5.7,0,0,0,2.628-1.689,4.577,4.577,0,0,0,.924-3.018,4.953,4.953,0,0,0-.491-2.267,4.3,4.3,0,0,0-1.372-1.588,6.434,6.434,0,0,0-2.079-.938,10.168,10.168,0,0,0-2.613-.318h-9.27Zm5.371-8.548h1.646a13.845,13.845,0,0,1,1.4.073,4.564,4.564,0,0,1,1.271.3,2.015,2.015,0,0,1,1.285,2.021,2.023,2.023,0,0,1-.347,1.242,2.2,2.2,0,0,1-.924.707,4.426,4.426,0,0,1-1.3.318q-.721.072-1.443.072h-1.589Zm0-7.8h1.56c.442,0,.876.019,1.3.057a3.912,3.912,0,0,1,1.126.26,1.855,1.855,0,0,1,.795.607,1.79,1.79,0,0,1,.3,1.1,1.692,1.692,0,0,1-.318,1.054,2.121,2.121,0,0,1-.823.65,4.379,4.379,0,0,1-1.141.332,8.173,8.173,0,0,1-1.3.1h-1.5ZM216.481,81.471h5.457l1.589-4.3h7.565l1.5,4.3h5.891l-7.768-20.156h-6.584Zm13.341-8.114h-5.054l2.6-7.884h.058ZM201.4,81.471h13.688V77.486h-8.317V61.315H201.4Z" fill="#fff"/></g></g></svg>