<svg xmlns="http://www.w3.org/2000/svg" width="142mm" height="32.467mm" viewBox="0 0 402.519 92.032"><title>git-lab-journal</title><g id="Layer_2" data-name="Layer 2"><g id="Layer_1-2" data-name="Layer 1"><path d="M43.7,43.233V57.142H62.241c-.348,10.547-9.273,19.82-19.935,19.82-16.459,0-24.69-16.111-24.69-30.6s8.115-31.3,24.573-31.3c9.04,0,16.459,6.029,19.937,13.909l15.069-8.113C70.471,7.535,57.49,0,42.653,0,16.573,0,0,21.442,0,46.363,0,70.471,16.111,92.032,41.611,92.032c27.121,0,39.755-21.908,39.755-46.6v-2.2Z" fill="#b11548"/><path d="M83,71.4A10.239,10.239,0,0,0,72.688,81.6a10.316,10.316,0,1,0,20.631,0A10.238,10.238,0,0,0,83,71.4" fill="#72aede"/><rect x="96.456" y="2.319" width="17.039" height="87.394" fill="#b11548"/><path d="M126.812,71.4A10.24,10.24,0,0,0,116.5,81.6a10.316,10.316,0,1,0,20.631,0,10.24,10.24,0,0,0-10.315-10.2" fill="#e1c21f"/><polygon points="157.302 17.155 174.921 17.155 174.921 2.319 122.646 2.319 122.646 17.155 140.264 17.155 140.264 89.713 157.302 89.713 157.302 17.155" fill="#b11548"/><path d="M170.616,71.4A10.24,10.24,0,0,0,160.3,81.6a10.317,10.317,0,1,0,20.632,0,10.239,10.239,0,0,0-10.317-10.2" fill="#7cb33c"/><path d="M320.471,89.449h14.291V85.288h-8.683V68.4h-5.608Zm-11.578-8.472h-5.276l2.713-8.231h.06Zm-13.929,8.472h5.7l1.658-4.492h7.9l1.568,4.492h6.151L309.828,68.4h-6.875Zm-21.981,0h5.156l-.181-14.382h.06l7.357,14.382h6.965V68.4h-5.126l.091,14.292h-.06L280.129,68.4h-7.146ZM257.908,72.384h1.477c2.141,0,4.1.362,4.1,2.32,0,2.383-2.292,2.443-4.1,2.443h-1.477ZM252.3,89.449h5.608V81.128h1.176c2.08,0,2.8.9,3.95,4.522l1.2,3.8h5.85l-2.05-5.728c-1.056-2.563-1.176-4.161-2.985-4.644v-.06c2.713-.633,4.04-2.5,4.04-5.307,0-3.618-3.046-5.306-6.784-5.306H252.3ZM248.5,68.4h-5.609V80.525c0,2.773-.753,5.125-3.618,5.125s-3.617-2.352-3.617-5.125V68.4h-5.609V81.459c0,5.758,3.738,8.352,9.226,8.352s9.227-2.594,9.227-8.352ZM211.567,78.927c0-3.649,1.356-6.724,4.763-6.724s4.764,3.075,4.764,6.724c0,3.467-1.356,6.723-4.764,6.723s-4.763-3.256-4.763-6.723m-5.789,0c0,6.693,3.678,10.884,10.552,10.884s10.553-4.191,10.553-10.884c0-6.755-3.618-10.886-10.553-10.886s-10.552,4.131-10.552,10.886M191.306,89.238a14.617,14.617,0,0,0,3.467.573c5.7,0,7.538-3.106,7.538-7.628V68.4H196.7v12.09c0,3.437-1.206,4.613-2.865,4.613a5.919,5.919,0,0,1-2.532-.512Z" fill="#fff"/><path d="M389.192,62.089H394.8V54.16l7.718-13.116h-6.452L392,49.486l-4.13-8.442h-6.453l7.779,13.116ZM368.957,45.024h1.478c2.141,0,4.1.362,4.1,2.322,0,2.382-2.291,2.442-4.1,2.442h-1.478Zm-5.608,17.065h5.608V53.768h1.176c2.081,0,2.8.9,3.95,4.523l1.206,3.8h5.85l-2.051-5.728c-1.055-2.563-1.176-4.161-2.986-4.643v-.061c2.715-.632,4.041-2.5,4.041-5.307,0-3.617-3.045-5.306-6.783-5.306H363.349ZM344.5,51.567c0-3.648,1.358-6.724,4.765-6.724s4.763,3.076,4.763,6.724c0,3.467-1.356,6.724-4.763,6.724s-4.765-3.257-4.765-6.724m-5.788,0c0,6.693,3.678,10.884,10.553,10.884s10.553-4.191,10.553-10.884c0-6.754-3.618-10.885-10.553-10.885s-10.553,4.131-10.553,10.885M325.6,62.089h5.609V45.205h5.185V41.044H320.415v4.161H325.6Zm-13.571-8.472h-5.276l2.713-8.231h.06ZM298.1,62.089h5.7l1.659-4.492h7.9l1.568,4.492h6.15l-8.11-21.045h-6.875ZM284.26,45.024h1.477c2.141,0,4.1.362,4.1,2.322,0,2.382-2.292,2.442-4.1,2.442H284.26Zm-5.608,17.065h5.608V53.768h1.176c2.08,0,2.8.9,3.95,4.523l1.2,3.8h5.85l-2.051-5.728c-1.055-2.563-1.175-4.161-2.984-4.643v-.061c2.713-.632,4.04-2.5,4.04-5.307,0-3.617-3.046-5.306-6.784-5.306h-10.01ZM259.808,51.567c0-3.648,1.356-6.724,4.763-6.724s4.765,3.076,4.765,6.724c0,3.467-1.358,6.724-4.765,6.724s-4.763-3.257-4.763-6.724m-5.79,0c0,6.693,3.679,10.884,10.553,10.884s10.553-4.191,10.553-10.884c0-6.754-3.618-10.885-10.553-10.885s-10.553,4.131-10.553,10.885m-14.411-6.543h1.628c1.869,0,3.678.181,3.678,2.111,0,1.779-1.9,2.231-3.738,2.231h-1.568Zm0,8.141h1.719c1.929,0,4.13.211,4.13,2.5,0,2.141-2.14,2.443-4.19,2.443h-1.659ZM234,62.089h8.865c3.769,0,8.2-1.055,8.2-6.09,0-2.563-1.447-4.071-4.251-4.643V51.3c2.351-.783,3.708-2.261,3.708-4.914,0-3.618-2.924-5.337-6.844-5.337H234ZM222.36,53.617h-5.276l2.714-8.231h.06Zm-13.929,8.472h5.7l1.659-4.492h7.9l1.568,4.492h6.151L223.3,41.044h-6.874Zm-15.588,0h14.291v-4.16h-8.683V41.044h-5.608Z" fill="#fff"/></g></g></svg>