<svg xmlns="http://www.w3.org/2000/svg" width="442.715" height="142.72" viewBox="0 0 442.715 142.72"><title>imaging-microscopy-logo</title><g id="Layer_2" data-name="Layer 2"><g id="Layer_2-2" data-name="Layer 2"><path d="M343.672,141.155h1.74V133h.03l3.465,8.16h2.3v-10.47h-1.74v8.22h-.03l-3.48-8.22h-2.28Zm-9.779-2.805a4.822,4.822,0,0,0,.922,1.673,3.643,3.643,0,0,0,1.335.967,4.058,4.058,0,0,0,3.135,0,3.643,3.643,0,0,0,1.335-.967,4.84,4.84,0,0,0,.923-1.673,8.73,8.73,0,0,0,0-4.86,4.835,4.835,0,0,0-.923-1.672,3.635,3.635,0,0,0-1.335-.968,4.058,4.058,0,0,0-3.135,0,3.635,3.635,0,0,0-1.335.968,4.817,4.817,0,0,0-.922,1.672,8.73,8.73,0,0,0,0,4.86m1.807-4.26a3.85,3.85,0,0,1,.465-1.207,1.855,1.855,0,0,1,.7-.668,1.846,1.846,0,0,1,1.71,0,1.853,1.853,0,0,1,.7.668,3.85,3.85,0,0,1,.465,1.207,9.765,9.765,0,0,1,0,3.66,3.857,3.857,0,0,1-.465,1.208,1.808,1.808,0,0,1-3.1,0,3.857,3.857,0,0,1-.465-1.208,9.821,9.821,0,0,1,0-3.66m-5.887,7.065h1.92v-10.47h-1.92Zm-5.685,0h1.92v-8.94h2.325v-1.53h-6.585v1.53h2.34Zm-3.329-1.98a2.806,2.806,0,0,1-.8.39,3.942,3.942,0,0,1-1.177.15,3.061,3.061,0,0,1-1.133-.21,2.434,2.434,0,0,1-.937-.667,3.354,3.354,0,0,1-.645-1.178,6.428,6.428,0,0,1,0-3.48,3.349,3.349,0,0,1,.645-1.177,2.437,2.437,0,0,1,.937-.668,3.061,3.061,0,0,1,1.133-.21,2.99,2.99,0,0,1,1.207.21c.315.14.572.26.773.36l.105-1.725a8.226,8.226,0,0,0-.908-.277,5.678,5.678,0,0,0-1.417-.158,4.87,4.87,0,0,0-2.063.413,4.141,4.141,0,0,0-1.485,1.132,4.983,4.983,0,0,0-.9,1.71,7.57,7.57,0,0,0,0,4.268,4.92,4.92,0,0,0,.908,1.7,4.184,4.184,0,0,0,1.5,1.132,4.993,4.993,0,0,0,2.1.413,8.074,8.074,0,0,0,1.342-.105,3.078,3.078,0,0,0,.923-.27Zm-15.81-8.49v6.78a4.961,4.961,0,0,0,.278,1.763,3.185,3.185,0,0,0,.765,1.192,2.936,2.936,0,0,0,1.132.675,4.481,4.481,0,0,0,1.4.21,4.431,4.431,0,0,0,1.38-.21,2.947,2.947,0,0,0,1.133-.675,3.209,3.209,0,0,0,.765-1.192,4.984,4.984,0,0,0,.277-1.763v-6.78h-1.92v6.78a2.979,2.979,0,0,1-.405,1.808,1.485,1.485,0,0,1-1.23.5,1.5,1.5,0,0,1-1.245-.5,2.979,2.979,0,0,1-.405-1.808v-6.78Zm-7.529,1.47h.645a3.439,3.439,0,0,1,1.4.263,2.477,2.477,0,0,1,.975.757,3.349,3.349,0,0,1,.57,1.193,6.5,6.5,0,0,1,0,3.105,3.344,3.344,0,0,1-.57,1.192,2.48,2.48,0,0,1-.975.758,3.439,3.439,0,0,1-1.4.262h-.645Zm-1.92,9h2.73a5.989,5.989,0,0,0,2.01-.323,4.247,4.247,0,0,0,1.582-.974,4.5,4.5,0,0,0,1.043-1.635,6.469,6.469,0,0,0,.374-2.3A5.441,5.441,0,0,0,302.012,132a4.97,4.97,0,0,0-3.742-1.313h-2.73Zm-9.705-2.805a4.823,4.823,0,0,0,.923,1.673,3.643,3.643,0,0,0,1.335.967,4.058,4.058,0,0,0,3.135,0,3.648,3.648,0,0,0,1.334-.967,4.823,4.823,0,0,0,.923-1.673,8.73,8.73,0,0,0,0-4.86,4.818,4.818,0,0,0-.923-1.672,3.64,3.64,0,0,0-1.334-.968,4.058,4.058,0,0,0-3.135,0,3.635,3.635,0,0,0-1.335.968,4.818,4.818,0,0,0-.923,1.672,8.73,8.73,0,0,0,0,4.86m1.808-4.26a3.85,3.85,0,0,1,.465-1.207,1.853,1.853,0,0,1,.7-.668,1.846,1.846,0,0,1,1.71,0,1.855,1.855,0,0,1,.7.668,3.874,3.874,0,0,1,.465,1.207,9.821,9.821,0,0,1,0,3.66,3.881,3.881,0,0,1-.465,1.208,1.807,1.807,0,0,1-3.105,0,3.857,3.857,0,0,1-.465-1.208,9.765,9.765,0,0,1,0-3.66m-8.242,1.155v-3.09h.779a2.257,2.257,0,0,1,1.26.3,1.35,1.35,0,0,1,.45,1.2,1.466,1.466,0,0,1-.472,1.2,1.883,1.883,0,0,1-1.238.39Zm-1.92,5.91h1.92v-4.5h.434a1.638,1.638,0,0,1,.893.233,1.491,1.491,0,0,1,.562.862l1.035,3.405h2.04L283,137.165a2.893,2.893,0,0,0-.262-.592,1.493,1.493,0,0,0-.293-.36.957.957,0,0,0-.3-.18,2.236,2.236,0,0,0-.3-.083v-.045a2.352,2.352,0,0,0,1.455-.78,2.443,2.443,0,0,0,.57-1.68,3.088,3.088,0,0,0-.225-1.237,2.236,2.236,0,0,0-.637-.855,2.74,2.74,0,0,0-.99-.5,4.606,4.606,0,0,0-1.268-.165h-3.269Zm-7.785,0h1.92V137.06h1.08a3.285,3.285,0,0,0,2.46-.847,3.742,3.742,0,0,0,0-4.688,3.3,3.3,0,0,0-2.46-.84h-3Zm1.92-5.565v-3.435h.72a1.755,1.755,0,0,1,1.312.428,1.78,1.78,0,0,1,.413,1.282,1.809,1.809,0,0,1-.413,1.29,1.736,1.736,0,0,1-1.312.435ZM258.6,136.94a2.664,2.664,0,1,0-.2-1.02,2.609,2.609,0,0,0,.2,1.02m-9.787,4.215h1.92v-8.94h2.325v-1.53h-6.585v1.53h2.34Zm-11.279,0h1.74V133h.03l3.464,8.16h2.3v-10.47h-1.74v8.22h-.03l-3.48-8.22h-2.279Zm-7.485,0h5.655v-1.53h-3.735v-3.09h3.39v-1.53h-3.39v-2.79h3.585v-1.53h-5.5Zm-3.945,0h1.74v-10.47h-2.775l-2.205,7.815h-.03l-2.16-7.815h-2.864v10.47h1.739v-8.73h.03l2.5,8.73h1.365l2.625-8.73h.03Zm-16.154,0h1.92V137.06h1.08a3.285,3.285,0,0,0,2.46-.847,3.742,3.742,0,0,0,0-4.688,3.3,3.3,0,0,0-2.46-.84h-3Zm1.92-5.565v-3.435h.72a1.755,1.755,0,0,1,1.312.428,1.78,1.78,0,0,1,.413,1.282,1.809,1.809,0,0,1-.413,1.29,1.736,1.736,0,0,1-1.312.435Zm-11.625,2.76a4.823,4.823,0,0,0,.923,1.673,3.643,3.643,0,0,0,1.335.967,4.058,4.058,0,0,0,3.135,0,3.652,3.652,0,0,0,1.335-.967,4.838,4.838,0,0,0,.922-1.673,8.73,8.73,0,0,0,0-4.86,4.833,4.833,0,0,0-.922-1.672,3.643,3.643,0,0,0-1.335-.968,4.058,4.058,0,0,0-3.135,0,3.635,3.635,0,0,0-1.335.968,4.818,4.818,0,0,0-.923,1.672,8.73,8.73,0,0,0,0,4.86m1.808-4.26a3.85,3.85,0,0,1,.465-1.207,1.853,1.853,0,0,1,.7-.668,1.846,1.846,0,0,1,1.71,0,1.855,1.855,0,0,1,.7.668,3.85,3.85,0,0,1,.465,1.207,9.821,9.821,0,0,1,0,3.66,3.857,3.857,0,0,1-.465,1.208,1.807,1.807,0,0,1-3.105,0,3.857,3.857,0,0,1-.465-1.208,9.765,9.765,0,0,1,0-3.66m-8.482,7.065h5.37v-1.53H195.5v-8.94h-1.92Zm-7.41,0h5.655v-1.53h-3.735v-3.09h3.39v-1.53h-3.39v-2.79h3.585v-1.53h-5.5Zm-6.449,0h2.024l3.195-10.47h-1.98l-2.175,8.07h-.03l-2.114-8.07h-2.07Zm-9.66,0h5.655v-1.53h-3.735v-3.09h3.39v-1.53h-3.39v-2.79h3.585v-1.53h-5.5Zm-7.62-9h.645a3.444,3.444,0,0,1,1.4.263,2.477,2.477,0,0,1,.975.757,3.349,3.349,0,0,1,.57,1.193,6.538,6.538,0,0,1,0,3.105,3.344,3.344,0,0,1-.57,1.192,2.48,2.48,0,0,1-.975.758,3.444,3.444,0,0,1-1.4.262h-.645Zm-1.92,9h2.73a5.985,5.985,0,0,0,2.01-.323,4.243,4.243,0,0,0,1.583-.974,4.481,4.481,0,0,0,1.042-1.635,6.446,6.446,0,0,0,.375-2.3A5.441,5.441,0,0,0,166.989,132a4.972,4.972,0,0,0-3.743-1.313h-2.73Zm-11.092-4.215a2.676,2.676,0,1,0-.2-1.02,2.612,2.612,0,0,0,.2,1.02m-13.281,4.215h1.92v-4.62h3.1v4.62h1.92v-10.47h-1.92v4.26h-3.1v-4.26h-1.92Zm-1.785-1.98a2.793,2.793,0,0,1-.8.39,3.942,3.942,0,0,1-1.177.15,3.061,3.061,0,0,1-1.133-.21,2.434,2.434,0,0,1-.937-.667,3.354,3.354,0,0,1-.645-1.178,6.428,6.428,0,0,1,0-3.48,3.349,3.349,0,0,1,.645-1.177,2.437,2.437,0,0,1,.937-.668,3.061,3.061,0,0,1,1.133-.21,2.987,2.987,0,0,1,1.207.21q.472.21.773.36l.1-1.725a8.158,8.158,0,0,0-.908-.277,5.678,5.678,0,0,0-1.417-.158,4.87,4.87,0,0,0-2.063.413,4.141,4.141,0,0,0-1.485,1.132,4.983,4.983,0,0,0-.9,1.71,7.57,7.57,0,0,0,0,4.268,4.92,4.92,0,0,0,.908,1.7,4.184,4.184,0,0,0,1.5,1.132,5,5,0,0,0,2.1.413,8.074,8.074,0,0,0,1.342-.105,3.069,3.069,0,0,0,.923-.27Zm-13.065-3.93v-3.09h.78a2.257,2.257,0,0,1,1.26.3,1.35,1.35,0,0,1,.45,1.2,1.466,1.466,0,0,1-.472,1.2,1.883,1.883,0,0,1-1.238.39Zm-1.92,5.91h1.92v-4.5h.435a1.638,1.638,0,0,1,.893.233,1.491,1.491,0,0,1,.562.862l1.035,3.405h2.04l-1.365-3.99a2.893,2.893,0,0,0-.262-.592,1.517,1.517,0,0,0-.293-.36.957.957,0,0,0-.3-.18,2.236,2.236,0,0,0-.3-.083v-.045a2.352,2.352,0,0,0,1.455-.78,2.443,2.443,0,0,0,.57-1.68,3.088,3.088,0,0,0-.225-1.237,2.236,2.236,0,0,0-.637-.855,2.756,2.756,0,0,0-.99-.5,4.606,4.606,0,0,0-1.268-.165h-3.27Zm-3.089,0h1.979l-3.374-10.47h-2.1l-3.51,10.47h1.92l.75-2.52h3.6Zm-3.93-3.99,1.44-4.89h.03l1.32,4.89Zm-9.555,3.99h5.655v-1.53h-3.735v-3.09h3.39v-1.53h-3.39v-2.79H108.3v-1.53h-5.5Zm-7.74-.315a4.78,4.78,0,0,0,2.385.465,4.727,4.727,0,0,0,1.388-.195,3.185,3.185,0,0,0,1.11-.585,2.705,2.705,0,0,0,.742-.982,3.321,3.321,0,0,0,.27-1.388,3.7,3.7,0,0,0-.112-.967,2.357,2.357,0,0,0-.338-.735,2.847,2.847,0,0,0-.562-.593,5.586,5.586,0,0,0-.8-.525l-1.125-.63q-.225-.12-.42-.247a2.192,2.192,0,0,1-.352-.285,1.165,1.165,0,0,1-.248-.368,1.293,1.293,0,0,1-.09-.51,1.16,1.16,0,0,1,.368-.885,1.533,1.533,0,0,1,1.087-.345,3.658,3.658,0,0,1,1.148.158q.472.157.817.292l.09-1.6q-.225-.075-.787-.225a5.594,5.594,0,0,0-1.4-.15,4.362,4.362,0,0,0-1.26.18,3.075,3.075,0,0,0-1.05.54,2.626,2.626,0,0,0-.99,2.13,2.78,2.78,0,0,0,.465,1.665,3.763,3.763,0,0,0,1.245,1.08l.975.54q.345.2.6.36a2.383,2.383,0,0,1,.428.345,1.194,1.194,0,0,1,.255.39,1.351,1.351,0,0,1,.082.5,1.643,1.643,0,0,1-.127.675,1.293,1.293,0,0,1-.353.473,1.487,1.487,0,0,1-.51.277,1.981,1.981,0,0,1-.6.09,3.637,3.637,0,0,1-1.35-.232,5.587,5.587,0,0,1-.87-.413Zm-7.259.315h5.654v-1.53H89.72v-3.09h3.389v-1.53H89.72v-2.79H93.3v-1.53H87.8Zm-6.51-5.91v-3.09h.78a2.257,2.257,0,0,1,1.26.3,1.35,1.35,0,0,1,.45,1.2,1.467,1.467,0,0,1-.473,1.2,1.88,1.88,0,0,1-1.237.39Zm-1.92,5.91h1.92v-4.5h.435a1.634,1.634,0,0,1,.892.233,1.492,1.492,0,0,1,.563.862l1.035,3.405h2.04l-1.365-3.99a2.89,2.89,0,0,0-.263-.592,1.492,1.492,0,0,0-.292-.36.957.957,0,0,0-.3-.18,2.236,2.236,0,0,0-.3-.083v-.045a2.352,2.352,0,0,0,1.455-.78,2.443,2.443,0,0,0,.57-1.68,3.088,3.088,0,0,0-.225-1.237,2.238,2.238,0,0,0-.638-.855,2.74,2.74,0,0,0-.99-.5,4.6,4.6,0,0,0-1.267-.165H79.37Z" fill="#fff"/><path d="M172.954,13.121a6.561,6.561,0,1,0-6.561-6.561,6.561,6.561,0,0,0,6.561,6.561" fill="#b00044" fill-rule="evenodd"/><path d="M244.6,52.622c-5.618,0-9.051-5.539-9.051-10.69s3.433-10.766,9.051-10.766,9.05,5.618,9.05,10.766-3.433,10.69-9.05,10.69M263.244,22.74H252.321v3.666h-.156a12.689,12.689,0,0,0-9.909-4.916c-11.391,0-17.789,10.143-17.789,20.677,0,10.3,6.007,20.13,17.243,20.13a13.322,13.322,0,0,0,10.455-5.071h.156v2.495c0,5.774-.156,12.563-7.881,12.563a7.312,7.312,0,0,1-7.568-6.711H225.325c.546,10.221,9.987,15.917,19.35,15.917,14.356,0,18.569-10.3,18.569-22.782Zm-66.475,0H185.846V61.049h10.923V42.089c0-4.6.078-11.86,6.554-11.86,6.164,0,5.93,5.93,5.93,10.534V61.049h10.923V37.641c0-8.894-2.965-16.151-13.264-16.151-3.9,0-7.724,1.328-9.987,4.76h-.156Zm-18.412,0H167.434V61.049h10.923ZM141.218,52.622c-5.617,0-9.05-5.539-9.05-10.69s3.433-10.766,9.05-10.766,9.051,5.618,9.051,10.766-3.433,10.69-9.051,10.69M159.866,22.74H148.942v3.666h-.156a12.685,12.685,0,0,0-9.908-4.916c-11.392,0-17.79,10.143-17.79,20.677,0,10.3,6.008,20.13,17.243,20.13a13.319,13.319,0,0,0,10.455-5.071h.156v2.495c0,5.774-.156,12.563-7.88,12.563a7.312,7.312,0,0,1-7.568-6.711H121.947c.546,10.221,9.987,15.917,19.349,15.917,14.356,0,18.57-10.3,18.57-22.782ZM97.917,52.622c-5.618,0-9.051-5.617-9.051-10.768S92.3,31.166,97.917,31.166s9.128,5.54,9.128,10.688-3.511,10.768-9.128,10.768m18.8-29.882H105.953v3.588A14.174,14.174,0,0,0,95.264,21.49c-11,0-17.477,10.065-17.477,20.208,0,10.378,6.4,20.6,17.633,20.6a13.239,13.239,0,0,0,10.377-4.76h.156v3.512H116.72Zm-87.072,0H18.725V61.049H29.648v-18.8c0-4.057-.312-12.016,5.774-12.016,5.7,0,5.227,7.646,5.227,11.391V61.049H51.572v-18.8c0-3.979-.078-12.016,5.852-12.016,5.384,0,5.15,6.945,5.15,10.69v20.13H73.5V37.174c0-8.348-2.419-15.684-12.172-15.684A13.265,13.265,0,0,0,50.168,27.5a12.148,12.148,0,0,0-11-6.008A11.536,11.536,0,0,0,29.8,26.172h-.156ZM11.469,2.219H0V61.048H11.469Z" fill="#fff"/><path d="M415.485,114.928l-12.639,26.294h12.015l27.854-58.751H430.544l-9.831,21.768-9.129-21.768H399.179Zm-35.421-2.574c-5.617,0-9.05-5.618-9.05-10.768s3.433-10.689,9.05-10.689,9.051,5.54,9.051,10.689-3.433,10.768-9.051,10.768m-7.958-29.883H361.183v58.751h10.923V117.191h.156c2.185,3.121,6.32,4.837,10.221,4.837,11.313,0,17.711-10.143,17.711-20.6,0-10.065-6.632-20.207-17.477-20.207a14.107,14.107,0,0,0-10.611,4.759ZM336.685,90.9c5.617,0,9.05,5.462,9.05,10.767,0,5.15-3.433,10.69-9.05,10.69s-9.051-5.54-9.051-10.69c0-5.305,3.433-10.767,9.051-10.767m0-9.674c-11.938,0-20.13,8.5-20.13,20.441,0,11.86,8.114,20.364,20.13,20.364s20.129-8.5,20.129-20.364c0-11.937-8.192-20.441-20.129-20.441M313.2,83.641a17.144,17.144,0,0,0-8.9-2.418c-11.547,0-19.9,9.128-19.9,20.519,0,11,8.037,20.286,19.35,20.286a19.046,19.046,0,0,0,9.441-2.34V109.155a10.409,10.409,0,0,1-7.647,3.667c-6.241,0-10.064-4.994-10.064-11,0-5.618,3.511-11.392,9.674-11.392,3.355,0,5.7,1.405,8.037,3.745ZM280.276,85.2c-3.121-2.731-8.27-3.979-12.328-3.979-7.178,0-12.171,5.227-12.171,12.405,0,6.164,3.823,8.427,7.646,10.065s7.646,2.419,7.646,5.774A4.122,4.122,0,0,1,266.7,113.6c-3.2,0-6.008-2.107-8.114-4.447l-4.994,6.475a17.6,17.6,0,0,0,13.5,6.4c8.037,0,14.9-5.071,14.9-13.576,0-6.631-3.9-9.284-7.88-11-3.9-1.716-7.88-2.5-7.88-5.3a3.522,3.522,0,0,1,3.589-3.277,8.671,8.671,0,0,1,5.774,2.653Zm-48.841,5.7c5.617,0,9.05,5.462,9.05,10.767,0,5.15-3.433,10.69-9.05,10.69s-9.051-5.54-9.051-10.69c0-5.305,3.433-10.767,9.051-10.767m0-9.674c-11.938,0-20.13,8.5-20.13,20.441,0,11.86,8.114,20.364,20.13,20.364s20.13-8.5,20.13-20.364c0-11.937-8.193-20.441-20.13-20.441m-34.407,1.248H186.105V120.78h10.923V103.537c0-5.93.78-12.64,8.348-12.64A7.762,7.762,0,0,1,209.9,92.3l1.327-10.143a12.678,12.678,0,0,0-4.525-.936,10.95,10.95,0,0,0-9.519,5.227h-.156Zm-16.93,1.17a17.144,17.144,0,0,0-8.9-2.418c-11.547,0-19.9,9.128-19.9,20.519,0,11,8.037,20.286,19.35,20.286a19.046,19.046,0,0,0,9.441-2.34V109.155a10.409,10.409,0,0,1-7.647,3.667c-6.241,0-10.064-4.994-10.064-11,0-5.618,3.511-11.392,9.674-11.392,3.355,0,5.7,1.405,8.037,3.745Zm-33.549-1.17H135.626V120.78h10.923Zm-27,38.309H131.1l-8.816-60.389h-8.271L100.125,99.168,85.613,60.391H77.5L67.59,120.78H79.137l5.228-36.515h.156L97.4,121.56h3.979l13.342-37.295h.156Z" fill="#fff"/><path d="M141.083,71.3A6.579,6.579,0,1,0,134.5,64.72a6.579,6.579,0,0,0,6.579,6.579" fill="#b00044" fill-rule="evenodd"/><path d="M58.839,141.16H72.805L62.662,127.74l6.32-8.5-7.256-6.788-5.93,7.568L47.6,109.483c4.994-3.277,9.675-7.724,9.675-14.2,0-8.817-6.554-14.512-15.058-14.512-8.427,0-14.981,5.851-14.981,14.59,0,4.759,2.029,8.66,4.76,12.483l-3.511,2.419c-5.306,3.589-8.5,8.739-8.5,15.293,0,9.908,7.334,17.164,17.243,17.164,6.632,0,12.016-3.276,16.853-7.49ZM39.49,98.794a7.468,7.468,0,0,1-1.405-4.369c0-2.809,1.717-5.462,4.838-5.462,3.043,0,4.6,3.043,4.6,5.774a7.907,7.907,0,0,1-3.277,6.4l-1.95,1.639Zm7.8,28.556c-2.419,2.341-5.149,5.071-8.739,5.071-3.9,0-7.022-4.135-7.022-7.88,0-4.291,3.511-7.1,6.632-9.441Z" fill="#b00044"/></g></g></svg>