<svg xmlns="http://www.w3.org/2000/svg" width="141.189mm" height="32.466mm" viewBox="0 0 400.22 92.03"><title>microscopy-and-analysis</title><g id="Layer_2" data-name="Layer 2"><g id="Layer_1-2" data-name="Layer 1"><path d="M46.332.867v43.3H36.125V33.59c0-10.269.371-15.341.31-15.341h-.062c-.062,0-3.526,5.939-3.9,6.558L27.4,33.467H22.021l-5.072-8.66c-.371-.619-3.836-6.558-3.9-6.558H12.99c-.062,0,.31,5.072.31,15.341V44.168H3.093V.867h9.773l8.1,13.113c3.155,5.135,3.649,6.249,3.712,6.249h.061c.062,0,.557-1.114,3.712-6.249L36.559.867Z" fill="#fff"/><path d="M49.8,44.168V.867H60.188v43.3Z" fill="#fff"/><path d="M95.756,14.29a12.135,12.135,0,0,0-9.093-4.021c-7.176,0-11.63,5.134-11.63,12.248,0,7.485,4.887,12.125,11.63,12.125,4.145,0,8.1-2.1,9.9-5.073l10.515,2.722a22.557,22.557,0,0,1-42.868-9.774,22.5,22.5,0,0,1,42.126-11.011Z" fill="#fff"/><path d="M134.169,44.168l-8.041-14.1h-5.319v14.1H110.416V.867h16.146c10.887,0,17.443,5.938,17.443,14.846a13.022,13.022,0,0,1-7.794,12.5L145.8,44.168Zm-13.36-23.32h7.175a4.929,4.929,0,0,0,5.2-5.135,4.929,4.929,0,0,0-5.2-5.135h-7.175Z" fill="#fff"/><path d="M169.181,0A22.133,22.133,0,0,1,191.7,22.517a22.486,22.486,0,1,1-44.971,0A22.083,22.083,0,0,1,169.181,0Zm0,34.766c7.051,0,11.692-5.011,11.692-12.249,0-7.3-4.641-12.248-11.692-12.248-6.99,0-11.631,4.949-11.631,12.248C157.55,29.755,162.191,34.766,169.181,34.766Z" fill="#fff"/><path d="M217.431,14.6a7.6,7.6,0,0,0-7.486-5.629c-3.092,0-4.887,1.546-4.887,3.277,0,2.846,4.33,3.9,9.588,5.815,6.434,2.351,13.176,6,13.176,13.423,0,7.918-6.8,13.548-16.887,13.548-9.031,0-15.465-5.011-18.311-13.114l9.959-2.66a9.383,9.383,0,0,0,8.786,6.556c3.711,0,5.443-1.731,5.443-3.834,0-3.465-5.072-4.331-11.258-6.681-5.2-1.98-11.2-4.825-11.2-12.434C194.357,6.125,201.162,0,210.564,0c8.289,0,14.846,5.073,16.887,11.877Z" fill="#fff"/><path d="M261.843,14.29a12.128,12.128,0,0,0-9.092-4.021c-7.175,0-11.63,5.134-11.63,12.248,0,7.485,4.886,12.125,11.63,12.125,4.145,0,8.1-2.1,9.9-5.073l10.516,2.722A22.557,22.557,0,0,1,230.3,22.517a22.5,22.5,0,0,1,42.125-11.011Z" fill="#fff"/><path d="M297.845,0a22.135,22.135,0,0,1,22.518,22.517,22.487,22.487,0,1,1-44.973,0A22.083,22.083,0,0,1,297.845,0Zm0,34.766c7.053,0,11.692-5.011,11.692-12.249,0-7.3-4.639-12.248-11.692-12.248-6.99,0-11.629,4.949-11.629,12.248C286.216,29.755,290.855,34.766,297.845,34.766Z" fill="#fff"/><path d="M340.9.867c10.639,0,17.072,5.567,17.072,14.846S351.539,30.559,340.9,30.559h-6.125V44.168H324.382V.867Zm-.186,19.981c4.02,0,6.432-1.918,6.432-5.135s-2.412-5.135-6.432-5.135h-5.939v10.27Z" fill="#fff"/><path d="M400.22.867,383.642,24.992V44.168h-10.33V24.992L356.732.867h11.631l7.855,11.567a37.443,37.443,0,0,0,2.227,3.155h.062a36.369,36.369,0,0,0,2.227-3.155L388.589.867Z" fill="#fff"/><path d="M32.414,77.555H8.6L2.536,91.164H0l19.485-43.3h2.041l19.487,43.3H38.476Zm-.99-2.164L22.517,55.41c-.928-2.1-1.918-4.7-1.98-4.7h-.062c-.062,0-1.051,2.6-1.98,4.7L9.588,75.391Z" fill="#fff"/><path d="M76.146,47.863v43.3H73.92L49.548,58.316c-3.712-5.009-4.825-6.8-4.888-6.8H44.6c-.062,0,.124,4.763.124,10.331V91.164H42.372v-43.3H44.6l24.249,32.6c3.525,4.7,5.01,6.8,5.072,6.8h.061c.063,0-.185-4.826-.185-10.269V47.863Z" fill="#fff"/><path d="M97.858,47.863c12.372,0,22.394,8.907,22.394,21.9,0,12.68-9.9,21.4-21.837,21.4H79.981v-43.3Zm.557,41.012c10.454,0,19.424-7.237,19.424-19.114,0-12-8.97-19.61-19.981-19.61H82.332V88.875Z" fill="#fff"/><path d="M149.076,84.359H131.941l-2.475,6.805h-11.2l17.321-43.3h9.836l17.321,43.3h-11.2Zm-3.34-9.093-3.094-8.412c-.928-2.475-2.041-6.372-2.1-6.372h-.063c-.062,0-1.176,3.9-2.1,6.372l-3.091,8.412Z" fill="#fff"/><path d="M203.945,47.863v43.3h-9.774L185.326,79.1c-3.959-5.443-9.774-13.67-9.836-13.67h-.063c-.06,0,.063,6.68.063,16.145v9.588H165.1v-43.3h9.774l9.216,12.371c2.786,3.712,9.405,13.053,9.465,13.053h.063c.062,0-.063-7.671-.063-15.527v-9.9Z" fill="#fff"/><path d="M237.1,84.359H219.964l-2.474,6.805h-11.2l17.321-43.3h9.836l17.32,43.3h-11.2Zm-3.34-9.093-3.093-8.412c-.928-2.475-2.042-6.372-2.1-6.372H228.5c-.062,0-1.175,3.9-2.1,6.372l-3.092,8.412Z" fill="#fff"/><path d="M282.751,81.452v9.712H251.884v-43.3h10.393V81.452Z" fill="#fff"/><path d="M313.246,47.863,296.668,71.988V91.164H286.337V71.988L269.759,47.863h11.629l7.858,11.567a36.771,36.771,0,0,0,2.226,3.155h.061a37.025,37.025,0,0,0,2.228-3.155l7.856-11.567Z" fill="#fff"/><path d="M334.339,61.6a7.6,7.6,0,0,0-7.484-5.629c-3.094,0-4.887,1.546-4.887,3.277,0,2.846,4.33,3.9,9.588,5.815,6.434,2.351,13.176,6,13.176,13.423,0,7.918-6.805,13.548-16.887,13.548-9.033,0-15.465-5.011-18.31-13.114l9.959-2.66a9.38,9.38,0,0,0,8.783,6.556c3.713,0,5.443-1.731,5.443-3.833,0-3.465-5.072-4.332-11.258-6.682-5.195-1.98-11.2-4.824-11.2-12.434,0-6.742,6.805-12.867,16.209-12.867,8.289,0,14.846,5.073,16.887,11.877Z" fill="#fff"/><path d="M348.628,91.164v-43.3h10.393v43.3Z" fill="#fff"/><path d="M386.177,61.6a7.6,7.6,0,0,0-7.486-5.629c-3.092,0-4.887,1.546-4.887,3.277,0,2.846,4.33,3.9,9.588,5.815,6.434,2.351,13.176,6,13.176,13.423,0,7.918-6.8,13.548-16.887,13.548-9.031,0-15.465-5.011-18.31-13.114l9.959-2.66a9.381,9.381,0,0,0,8.785,6.556c3.711,0,5.443-1.731,5.443-3.833,0-3.465-5.072-4.332-11.258-6.682-5.2-1.98-11.2-4.824-11.2-12.434C363.1,53.121,369.908,47,379.31,47c8.289,0,14.846,5.073,16.887,11.877Z" fill="#fff"/></g></g></svg>