<svg xmlns="http://www.w3.org/2000/svg" width="168.49" height="31.837" viewBox="0 0 168.49 31.837"><title>Asset 1</title><g id="Layer_2" data-name="Layer 2"><g id="svg3787"><path id="path3801" d="M29.159.741H37.2V15.7H47.317v4.347H29.159Z" fill="#04157a"/><g id="g3811"><path id="path3813" d="M131.1,20.819c-6.269,0-11.544-1.866-11.544-7.006V.741h7.786V13.217c0,2.417,1.787,3.519,3.758,3.519s3.754-1.1,3.754-3.519V.741h7.785V13.813c0,5.14-5.27,7.006-11.539,7.006" fill="#04157a"/></g><g id="g3815"><path id="path3817" d="M158.955,5.872h8.228C166.752,1.439,160.51.115,155.675.115S144.542,1.7,144.542,6.533c0,3.534,3.458,4.664,5.883,5.156,1.721.347,4.59.836,6.027,1.152,2,.436,3.028.843,3.028,2.019,0,1.257-1.16,1.9-3.543,1.9-2.26,0-3.61-.7-3.985-2.295h-8.384c.492,5.259,7.23,6.41,12.547,6.41,5.351,0,11.744-1.276,11.744-6.487,0-2.828-1.822-4.713-6.308-5.61-2.348-.469-5.6-1.08-6.855-1.3-1.658-.288-2.249-.885-2.249-1.7,0-.839.8-1.721,3.13-1.721,1.965,0,3.027.572,3.378,1.811" fill="#04157a"/></g><g id="g3819"><path id="path3821" d="M102.907,8.722V4.959h5.1c1.272,0,2.359.593,2.359,1.818,0,1.082-.624,1.945-2.368,1.945Zm7.921,4.212c5.792,0,7.266-3.68,7.266-6.035,0-2.167-1.246-6.159-7.259-6.159H95.265v19.3h7.643V12.936Z" fill="#04157a"/></g><g id="g3823"><path id="path3825" d="M57,1.209,57.213.74h8.071l-8.4,12.805v6.5H49.252v-6.5L40.881.74h8.042l.225.469L52.786,7.6c.241.41.312.41.577,0Z" fill="#04157a"/></g><g id="g3827"><path id="path3829" d="M81.4,20.042l.144-.382,4.1-9.538c.107-.25.351-.182.356.037v9.883h6.585V.742h-7.96l-.147.415-4.9,11.071c-.18.422-.349.419-.531,0l-4.9-11.071L74,.742H66.04v19.3h6.587V10.159c0-.219.25-.287.356-.037l4.1,9.538.145.382Z" fill="#04157a"/></g><g id="g3831"><path id="path3833" d="M19.244,10.393c0-3.907-2.02-6.316-5.371-6.316S8.5,6.486,8.5,10.393s2.02,6.313,5.371,6.313,5.371-2.41,5.371-6.313m8.1,0c0,6.484-5.623,10.391-13.469,10.391S.405,16.877.405,10.393,6.027,0,13.873,0,27.342,3.9,27.342,10.393" fill="#04157a"/></g><g id="g3835"><path id="path3837" d="M0,29.668l84.245,2.169,84.245-2.169v-1L84.245,26.5,0,28.673Z" fill="#e8b126"/></g></g></g></svg>