<svg xmlns="http://www.w3.org/2000/svg" width="600" height="600" viewBox="0 0 600 600"><title>zeiss</title><g id="Layer_2" data-name="Layer 2"><g id="Layer_1-2" data-name="Layer 1"><path d="M600,600A732.668,732.668,0,0,0,0,600V0H600Z" fill="#141e8c"/><path d="M71.155,183.076a30.738,30.738,0,0,0-30.482,28.612H27.209V169.331h105s.842,32.726-30.2,67.415c0,0-29.546,34.315-30.294,49.369H88.733c24.4,0,26.929-28.611,26.929-28.611h14.025v42.449H22.347S18.42,267.789,55.633,228.8c0,0,22.908-25.62,28.238-45.816Z" fill="#fff"/><path d="M338.569,299.86V286.022H335.39a10.456,10.456,0,0,1-10.472-10.438V193.642a10.455,10.455,0,0,1,10.438-10.472h3.213V169.331H268.911V183.17h3.179a10.475,10.475,0,0,1,10.565,10.385v81.994a10.475,10.475,0,0,1-10.478,10.473h-3.266V299.86Z" fill="#fff"/><path d="M254.511,299.953V257.5H240.486s-2.618,28.611-27.022,28.611H199.439V241.608H204.4a10.5,10.5,0,0,1,10.565,10.425q0,.071,0,.141v5.236H228.8V211.688H214.96v5.329a10.5,10.5,0,0,1-10.425,10.566h-5.1V183.076h14.025c24.4,0,27.022,28.612,27.022,28.612h14.025v-42.45H143.9V183.17h3.179a10.454,10.454,0,0,1,10.472,10.437v81.942a10.455,10.455,0,0,1-10.437,10.473H143.9V299.86Z" fill="#fff"/><path d="M411.688,183.076a30.524,30.524,0,0,1,30.388,28.612h13.557V169.331H355.306s-15.895,20.758,25.62,67.415c0,0,29.453,34.315,30.2,49.369H394.2c-24.4,0-27.022-28.611-27.022-28.611H353.062v42.449H454.231s18.42-19.822-27.116-71.154c0,0-23.842-24.5-28.237-45.816Z" fill="#fff"/><path d="M529.032,183.076a30.616,30.616,0,0,1,30.388,28.612h13.465V169.331H472.651s-15.9,20.758,25.619,67.415c0,0,29.453,34.315,30.2,49.369H511.547c-24.4,0-27.022-28.611-27.022-28.611H470.5v42.449H571.669S590,280.131,544.554,228.8c0,0-23.843-24.5-28.144-45.816Z" fill="#fff"/></g></g></svg>