<?xml version="1.0" encoding="utf-8"?>
<!-- Generator: Adobe Illustrator 24.0.1, SVG Export Plug-In . SVG Version: 6.00 Build 0)  -->
<svg version="1.1" id="Layer_1" xmlns="http://www.w3.org/2000/svg" xmlns:xlink="http://www.w3.org/1999/xlink" x="0px" y="0px"
	 viewBox="0 0 400.2 92" style="enable-background:new 0 0 400.2 92;" xml:space="preserve">
<style type="text/css">
	.st0{fill:#B5282E;}
</style>
<title>microscopy-and-analysis</title>
<g id="Layer_2_1_">
	<g id="Layer_1-2">
		<path class="st0" d="M46.3,0.9v43.3H36.1V33.6c0-10.3,0.4-15.3,0.3-15.3h-0.1c-0.1,0-3.5,5.9-3.9,6.6l-5.1,8.7H22L17,24.8
			c-0.4-0.6-3.8-6.6-3.9-6.6H13c-0.1,0,0.3,5.1,0.3,15.3v10.6H3.1V0.9h9.8L21,14c3.2,5.1,3.6,6.2,3.7,6.2h0.1c0.1,0,0.6-1.1,3.7-6.2
			l8.1-13.1H46.3z"/>
		<path class="st0" d="M49.8,44.2V0.9h10.4v43.3L49.8,44.2z"/>
		<path class="st0" d="M95.8,14.3c-2.3-2.6-5.6-4-9.1-4c-7.2,0-11.6,5.1-11.6,12.2c0,7.5,4.9,12.1,11.6,12.1c4.1,0,8.1-2.1,9.9-5.1
			l10.5,2.7C101.7,43.5,88.2,48.2,77,42.8C69.2,39,64.2,31.2,64.2,22.5C64.2,10.1,74.3,0,86.7,0c8.1,0,15.7,4.4,19.6,11.5L95.8,14.3
			z"/>
		<path class="st0" d="M134.2,44.2l-8-14.1h-5.3v14.1h-10.4V0.9h16.1c10.9,0,17.4,5.9,17.4,14.8c0.2,5.4-2.9,10.3-7.8,12.5l9.6,16
			H134.2z M120.8,20.8h7.2c2.7,0.2,5-1.9,5.2-4.6c0-0.2,0-0.3,0-0.5c0.1-2.7-2-5-4.7-5.1c-0.2,0-0.3,0-0.5,0h-7.2V20.8z"/>
		<path class="st0" d="M169.2,0c12.2-0.2,22.3,9.5,22.5,21.7c0,0.3,0,0.5,0,0.8c0.1,12.4-9.9,22.6-22.3,22.6
			c-12.4,0.1-22.6-9.9-22.6-22.3c0-0.1,0-0.2,0-0.3c-0.2-12.2,9.4-22.3,21.6-22.5C168.6,0,168.9,0,169.2,0z M169.2,34.8
			c7.1,0,11.7-5,11.7-12.2c0-7.3-4.6-12.2-11.7-12.2c-7,0-11.6,4.9-11.6,12.2C157.6,29.8,162.2,34.8,169.2,34.8z"/>
		<path class="st0" d="M217.4,14.6c-0.9-3.4-4-5.7-7.5-5.6c-3.1,0-4.9,1.5-4.9,3.3c0,2.8,4.3,3.9,9.6,5.8c6.4,2.4,13.2,6,13.2,13.4
			c0,7.9-6.8,13.5-16.9,13.5c-9,0-15.5-5-18.3-13.1l10-2.7c1.2,3.8,4.8,6.5,8.8,6.6c3.7,0,5.4-1.7,5.4-3.8c0-3.5-5.1-4.3-11.3-6.7
			c-5.2-2-11.2-4.8-11.2-12.4c0-6.7,6.8-12.9,16.2-12.9c8.3,0,14.8,5.1,16.9,11.9L217.4,14.6z"/>
		<path class="st0" d="M261.8,14.3c-2.3-2.6-5.6-4-9.1-4c-7.2,0-11.6,5.1-11.6,12.2c0,7.5,4.9,12.1,11.6,12.1c4.1,0,8.1-2.1,9.9-5.1
			l10.5,2.7c-5.4,11.2-18.9,15.9-30.1,10.5c-7.8-3.8-12.7-11.6-12.7-20.3c0-12.4,10.1-22.5,22.5-22.5c8.1,0,15.6,4.4,19.6,11.5
			L261.8,14.3z"/>
		<path class="st0" d="M297.8,0c12.2-0.2,22.3,9.5,22.5,21.7c0,0.3,0,0.5,0,0.8c0.1,12.4-9.9,22.6-22.3,22.6
			c-12.4,0.1-22.6-9.9-22.6-22.3c0-0.1,0-0.2,0-0.3C275.1,10.3,284.8,0.2,297,0C297.3,0,297.6,0,297.8,0z M297.8,34.8
			c7.1,0,11.7-5,11.7-12.2c0-7.3-4.6-12.2-11.7-12.2c-7,0-11.6,4.9-11.6,12.2C286.2,29.8,290.9,34.8,297.8,34.8z"/>
		<path class="st0" d="M340.9,0.9c10.6,0,17.1,5.6,17.1,14.8s-6.4,14.8-17.1,14.8h-6.1v13.6h-10.4V0.9H340.9z M340.7,20.8
			c4,0,6.4-1.9,6.4-5.1s-2.4-5.1-6.4-5.1h-5.9v10.3H340.7z"/>
		<path class="st0" d="M400.2,0.9L383.6,25v19.2h-10.3V25L356.7,0.9h11.6l7.9,11.6c0.7,1.1,1.4,2.1,2.2,3.2h0.1
			c0.8-1,1.5-2.1,2.2-3.2l7.9-11.6H400.2z"/>
		<path d="M32.4,77.6H8.6L2.5,91.2H0l19.5-43.3h2L41,91.2h-2.5L32.4,77.6z M31.4,75.4l-8.9-20c-0.9-2.1-1.9-4.7-2-4.7h-0.1
			c-0.1,0-1.1,2.6-2,4.7l-8.9,20H31.4z"/>
		<path d="M76.1,47.9v43.3h-2.2L49.5,58.3c-3.7-5-4.8-6.8-4.9-6.8h-0.1c-0.1,0,0.1,4.8,0.1,10.3v29.3h-2.4V47.9h2.2l24.2,32.6
			c3.5,4.7,5,6.8,5.1,6.8H74c0.1,0-0.2-4.8-0.2-10.3V47.9H76.1z"/>
		<path d="M97.9,47.9c12.4,0,22.4,8.9,22.4,21.9c0,12.7-9.9,21.4-21.8,21.4H80V47.9L97.9,47.9z M98.4,88.9
			c10.5,0,19.4-7.2,19.4-19.1c0-12-9-19.6-20-19.6H82.3v38.7H98.4z"/>
		<path class="st0" d="M149.1,84.4h-17.1l-2.5,6.8h-11.2l17.3-43.3h9.8l17.3,43.3h-11.2L149.1,84.4z M145.7,75.3l-3.1-8.4
			c-0.9-2.5-2-6.4-2.1-6.4h-0.1c-0.1,0-1.2,3.9-2.1,6.4l-3.1,8.4H145.7z"/>
		<path class="st0" d="M203.9,47.9v43.3h-9.8l-8.8-12.1c-4-5.4-9.8-13.7-9.8-13.7h-0.1c-0.1,0,0.1,6.7,0.1,16.1v9.6h-10.4V47.9h9.8
			l9.2,12.4c2.8,3.7,9.4,13.1,9.5,13.1h0.1c0.1,0-0.1-7.7-0.1-15.5v-9.9L203.9,47.9z"/>
		<path class="st0" d="M237.1,84.4H220l-2.5,6.8h-11.2l17.3-43.3h9.8l17.3,43.3h-11.2L237.1,84.4z M233.8,75.3l-3.1-8.4
			c-0.9-2.5-2-6.4-2.1-6.4h-0.1c-0.1,0-1.2,3.9-2.1,6.4l-3.1,8.4H233.8z"/>
		<path class="st0" d="M282.8,81.5v9.7h-30.9V47.9h10.4v33.6H282.8z"/>
		<path class="st0" d="M313.2,47.9L296.7,72v19.2h-10.3V72l-16.6-24.1h11.6l7.9,11.6c0.7,1.1,1.4,2.1,2.2,3.2h0.1
			c0.8-1,1.5-2.1,2.2-3.2l7.9-11.6H313.2z"/>
		<path class="st0" d="M334.3,61.6c-0.9-3.4-4-5.7-7.5-5.6c-3.1,0-4.9,1.5-4.9,3.3c0,2.8,4.3,3.9,9.6,5.8c6.4,2.4,13.2,6,13.2,13.4
			c0,7.9-6.8,13.5-16.9,13.5c-9,0-15.5-5-18.3-13.1l10-2.7c1.2,3.8,4.8,6.5,8.8,6.6c3.7,0,5.4-1.7,5.4-3.8c0-3.5-5.1-4.3-11.3-6.7
			c-5.2-2-11.2-4.8-11.2-12.4c0-6.7,6.8-12.9,16.2-12.9c8.3,0,14.8,5.1,16.9,11.9L334.3,61.6z"/>
		<path class="st0" d="M348.6,91.2V47.9H359v43.3H348.6z"/>
		<path class="st0" d="M386.2,61.6c-0.9-3.4-4-5.7-7.5-5.6c-3.1,0-4.9,1.5-4.9,3.3c0,2.8,4.3,3.9,9.6,5.8c6.4,2.4,13.2,6,13.2,13.4
			c0,7.9-6.8,13.5-16.9,13.5c-9,0-15.5-5-18.3-13.1l10-2.7c1.2,3.8,4.8,6.5,8.8,6.6c3.7,0,5.4-1.7,5.4-3.8c0-3.5-5.1-4.3-11.3-6.7
			c-5.2-2-11.2-4.8-11.2-12.4c0-6.7,6.8-12.9,16.2-12.9c8.3,0,14.8,5.1,16.9,11.9L386.2,61.6z"/>
	</g>
</g>
</svg>
